<?xml version="1.0" encoding="UTF-8" standalone="no"?>
<svg
   version="1.1"
   id="Layer_1"
   x="0px"
   y="0px"
   width="100%"
   viewBox="0 0 6000 3041"
   enable-background="new 0 0 6000 3041"
   xml:space="preserve"
   sodipodi:docname="bub-svg.svg"
   inkscape:version="1.3.2 (091e20e, 2023-11-25)"
   xmlns:inkscape="http://www.inkscape.org/namespaces/inkscape"
   xmlns:sodipodi="http://sodipodi.sourceforge.net/DTD/sodipodi-0.dtd"
   xmlns="http://www.w3.org/2000/svg"
   xmlns:svg="http://www.w3.org/2000/svg"><defs
   id="defs40" /><sodipodi:namedview
   id="namedview40"
   pagecolor="#505050"
   bordercolor="#eeeeee"
   borderopacity="1"
   inkscape:showpageshadow="0"
   inkscape:pageopacity="0"
   inkscape:pagecheckerboard="0"
   inkscape:deskcolor="#505050"
   inkscape:zoom="0.12916667"
   inkscape:cx="3000"
   inkscape:cy="1517.4194"
   inkscape:window-width="1392"
   inkscape:window-height="1027"
   inkscape:window-x="0"
   inkscape:window-y="25"
   inkscape:window-maximized="0"
   inkscape:current-layer="Layer_1" />

<path
   fill="#FFED00"
   opacity="1.000000"
   stroke="none"
   d=" M13.278003,1698.932129   C13.287598,1691.244751 13.297194,1683.557251 13.501195,1672.732910   C12.567952,1656.998779 15.939406,1644.117432 11.423166,1629.811768   C11.461612,1625.350952 11.588003,1622.791504 11.241664,1620.297607   C10.914687,1617.943115 10.375667,1614.978149 6.964434,1616.078857   C5.687473,1616.490845 4.971657,1618.641846 4.000004,1620.000000   C4.000000,1615.733276 4.000000,1611.466675 5.120825,1607.628052   C10.145824,1607.889282 12.241814,1605.744507 12.183920,1601.946045   C11.952100,1586.735596 11.578568,1571.527344 11.430380,1554.431641   C11.644790,1539.434937 11.747884,1526.324829 11.712664,1513.215088   C11.665118,1495.518311 11.496797,1477.822021 11.411401,1460.125244   C11.384548,1454.560425 10.523571,1449.565430 4.000000,1448.000000   C4.000000,1334.583130 4.000000,1221.166138 5.558848,1105.527832   C13.105750,1099.052979 11.299071,1092.624268 11.347672,1086.947998   C11.596279,1057.913330 11.578338,1028.876221 11.887426,998.005371   C12.093657,985.132019 12.128694,974.092468 12.010622,963.054626   C11.955976,957.946045 11.602827,952.840698 11.385013,947.733887   C14.340791,871.234375 16.586458,794.699036 20.441870,718.244934   C24.735662,633.097473 30.358767,548.015503 35.701794,462.923706   C37.206093,438.966675 41.364613,415.373840 46.612808,391.894928   C63.420261,316.703369 108.392136,265.062958 177.484589,233.088898   C215.273346,215.601318 255.264114,205.290939 295.872925,197.391403   C351.460754,186.578003 407.086884,175.852905 462.932404,166.497528   C549.771362,151.950043 637.112427,142.192245 725.399536,143.842117   C805.155029,145.332535 883.321716,156.375732 959.313538,181.457520   C1020.148560,201.536682 1075.353394,231.746246 1124.752563,272.412018   C1192.318848,328.033264 1244.359497,395.468262 1278.117188,476.526733   C1301.020752,531.522095 1311.817261,588.823364 1308.169800,648.352295   C1304.107300,714.657288 1281.089478,774.293945 1241.782837,827.687622   C1210.252319,870.518372 1171.738281,906.425720 1128.442505,936.788513   C1082.629883,968.916504 1035.356201,998.956665 988.869202,1030.130127   C969.501343,1043.117920 950.479736,1056.624756 931.390991,1070.024170   C927.662903,1072.640991 924.351135,1075.850952 921.263916,1078.438110   C922.488037,1085.515259 927.452698,1083.600098 930.923828,1083.920044   C985.391113,1088.940796 1039.422729,1096.859741 1092.929321,1108.222046   C1214.291748,1133.993652 1330.122803,1174.887207 1438.625366,1235.533325   C1545.577026,1295.312622 1640.206421,1370.276123 1717.729248,1465.631592   C1821.384277,1593.130371 1887.259033,1737.777344 1909.714233,1900.938965   C1929.589722,2045.356934 1909.094116,2183.978516 1843.810791,2315.072266   C1808.788574,2385.399658 1763.329346,2448.498535 1709.061646,2505.206787   C1628.396362,2589.499756 1534.513672,2655.331299 1428.669556,2704.127686   C1324.770386,2752.027588 1216.974365,2788.144043 1104.592773,2810.233398   C1002.721313,2830.256836 899.929749,2838.126465 796.332764,2831.442627   C728.481140,2827.064941 660.616455,2825.611084 592.672485,2824.629639   C509.225586,2823.424561 426.388000,2814.907959 344.860962,2796.832520   C314.386871,2790.076172 284.720062,2779.578613 254.835098,2770.303711   C237.664154,2764.974365 220.784851,2758.702393 203.791672,2752.804443   C194.864624,2749.706055 186.860992,2745.077881 180.062424,2738.410400   C131.174255,2690.466064 93.493507,2635.612305 74.926178,2568.840576   C67.567192,2542.375977 64.030518,2515.337646 61.838173,2488.063721   C54.792080,2400.406494 46.801144,2312.811523 40.985786,2225.072510   C33.541302,2112.753906 27.825026,2000.320679 21.451735,1887.931885   C20.546860,1871.975098 20.136124,1855.990234 19.632275,1836.921143   C19.338020,1833.077148 18.908184,1832.330322 18.478346,1831.583496   C18.441566,1827.525269 18.404785,1823.466919 18.915993,1816.761230   C18.736311,1811.719849 18.008644,1809.326172 17.280964,1806.932373   C17.297178,1801.858643 17.313408,1796.784790 17.619566,1788.784058   C17.084009,1775.836182 16.258520,1765.815430 15.433037,1755.794556   C15.414988,1749.100952 15.396935,1742.407349 15.437460,1732.790527   C15.085599,1729.097900 14.675158,1728.328613 14.264715,1727.559204   C14.311642,1722.227295 14.358568,1716.895264 14.966105,1708.831787   C14.777145,1703.710815 14.027575,1701.321533 13.278003,1698.932129  z"
   id="path2" />
<path
   fill="#FFED00"
   opacity="1.000000"
   stroke="none"
   d=" M6004.000000,1994.250000   C6002.686523,1995.057007 6001.338379,1991.986206 5999.754395,1994.822510   C5997.882812,1998.174194 5996.699707,2002.048218 5995.897949,2005.839722   C5965.940430,2147.489746 5896.495605,2267.435547 5796.341797,2370.781738   C5702.470703,2467.644775 5590.909668,2537.324707 5466.581543,2587.847412   C5378.712891,2623.554688 5288.700195,2651.973877 5195.487793,2670.074951   C5108.170898,2687.031494 5020.089355,2695.099365 4931.200684,2692.605469   C4889.294434,2691.429688 4847.459473,2687.893311 4805.570801,2685.867432   C4786.949219,2684.966309 4768.275391,2684.912842 4749.625000,2684.897705   C4702.327637,2684.859863 4655.055664,2683.895752 4607.877441,2680.482422   C4550.002441,2676.294922 4492.765137,2667.389648 4435.872070,2656.158447   C4433.262695,2655.643555 4430.661133,2655.013184 4428.126465,2654.212158   C4387.483398,2641.369629 4346.857910,2628.472900 4306.215332,2615.628418   C4287.937012,2609.852051 4272.651367,2599.861572 4260.598633,2584.749756   C4246.903809,2567.579346 4231.828613,2551.439697 4218.992188,2533.668213   C4181.373535,2481.586914 4162.196289,2422.768311 4156.338867,2359.005371   C4142.933105,2213.069580 4132.168457,2066.941406 4124.140137,1920.623169   C4118.302734,1814.244141 4113.109375,1707.823242 4108.631836,1601.378784   C4105.944824,1537.505615 4105.369629,1473.546021 4103.521484,1409.634644   C4099.803223,1281.063354 4099.996582,1152.461792 4100.570312,1023.863586   C4100.793457,973.925171 4102.437988,923.992065 4103.543457,874.058960   C4104.427246,834.111694 4105.096191,794.154419 4106.535645,754.225891   C4108.958984,687.018494 4111.336426,619.800293 4114.812012,552.642456   C4118.424805,482.843018 4123.163086,413.099731 4127.719727,343.352112   C4129.805176,311.436615 4132.752441,279.584320 4140.530762,248.414276   C4149.877930,210.953430 4166.030762,177.010406 4192.240723,148.238678   C4212.266113,126.255730 4236.302734,109.728897 4262.710449,96.496429   C4291.453125,82.094131 4321.723145,71.540459 4353.018555,64.744614   C4451.320801,43.398129 4550.053711,24.319004 4650.047852,12.515960   C4653.353027,12.125831 4656.675781,11.886065 4663.470703,11.947516   C4678.824219,11.099984 4690.705566,9.952581 4702.545410,8.471993   C4703.206055,8.389379 4703.522949,5.554054 4704.000000,3.999976   C4710.857422,4.000000 4717.714844,4.000000 4726.482422,5.034341   C4730.435059,6.844051 4732.455566,7.580606 4732.000000,4.000000   C4769.416992,4.000000 4806.833984,4.000000 4846.742676,4.181707   C4849.234375,4.363415 4850.886230,5.089475 4850.886230,5.089475   C4850.886230,5.089475 4852.000000,4.000000 4852.000000,4.000000   C4864.122559,4.000000 4876.244629,4.000000 4889.437500,5.525372   C4910.387695,13.537465 4931.000977,14.809811 4951.912598,15.655398   C4952.151367,15.649504 4952.607910,15.792063 4953.740234,16.651119   C4960.486328,18.203737 4966.100586,18.897299 4971.957031,19.589321   C4972.199707,19.587780 4972.660645,19.739603 4973.795898,20.609787   C4980.602539,22.248331 4986.274414,23.016693 4993.489258,24.052845   C5005.340332,27.015154 5015.695801,29.541296 5025.948730,32.431614   C5088.127930,49.959557 5145.809570,76.798714 5197.584961,115.757568   C5279.383301,177.307541 5341.133301,254.297302 5377.338867,350.658142   C5399.518066,409.688904 5408.016602,470.609406 5399.198242,533.356567   C5389.741699,600.646240 5360.616211,658.979553 5316.733887,710.291626   C5281.361816,751.651794 5239.546875,785.703674 5194.597168,815.928284   C5150.909668,845.304504 5106.553711,873.686340 5062.701660,902.820923   C5047.727051,912.770020 5033.350098,923.623718 5018.798340,934.199951   C5016.340820,935.986328 5012.846191,937.802429 5015.328613,941.982483   C5016.625000,942.304382 5017.849609,942.786194 5019.106934,942.895752   C5126.436523,952.240173 5231.254883,973.430420 5333.492188,1007.761780   C5397.474609,1029.246948 5459.311035,1055.427002 5518.654785,1087.475464   C5610.768066,1137.221069 5694.533691,1198.246582 5766.573730,1274.488525   C5884.811035,1399.623291 5962.195312,1546.216431 5995.983887,1715.401367   C5996.882324,1719.902588 5997.954590,1724.457642 5999.710938,1728.668579   C6000.929688,1731.590088 6002.639648,1728.948242 6004.000000,1728.000000   C6004.000000,1729.777832 6004.000000,1731.555542 6002.445312,1734.239990   C6000.672363,1739.345459 6000.453613,1743.544312 5999.835938,1749.171631   C5999.831055,1754.280518 5998.641113,1758.729614 6004.000000,1760.000000   C6004.000000,1763.000000 6004.000000,1766.000000 6003.168945,1770.607300   C6002.892090,1773.476440 6003.445801,1774.738281 6004.000000,1776.000000   C6004.000000,1829.416870 6004.000000,1882.833862 6003.266113,1939.455566   C6001.775391,1950.077637 6000.874512,1957.486450 6000.439941,1964.922363   C6000.384277,1965.875610 6002.753906,1966.970581 6004.000000,1968.000000   C6004.000000,1976.166626 6004.000000,1984.333374 6004.000000,1994.250000  z"
   id="path3" />
<path
   fill="#FEED00"
   opacity="1.000000"
   stroke="none"
   d=" M2927.753662,2995.809814   C2861.608887,2964.413086 2803.089111,2921.588379 2747.262207,2874.843262   C2663.344971,2804.577148 2584.838623,2728.734619 2512.832031,2646.226074   C2411.584961,2530.212646 2325.336914,2404.008789 2254.225586,2267.401123   C2186.296143,2136.906982 2133.571045,2000.416870 2091.846191,1859.506714   C2054.714844,1734.110107 2026.708496,1606.622314 2003.892822,1477.932251   C1986.438721,1379.484009 1972.672974,1280.490601 1959.891113,1181.347656   C1955.545654,1147.642578 1950.423950,1114.036865 1946.150391,1080.323242   C1942.711548,1053.195679 1940.465820,1025.931641 1944.073730,998.624268   C1948.564697,964.632935 1961.288086,934.563843 1986.298584,910.193604   C1999.546631,897.284790 2015.449829,889.089722 2032.409180,882.981995   C2059.973633,873.054993 2087.738525,863.641418 2115.641113,854.705750   C2169.847656,837.346497 2225.679688,828.509827 2282.281982,823.849243   C2324.161621,820.400940 2366.108643,819.700195 2408.033447,821.603027   C2465.268311,824.200745 2522.305420,829.536255 2578.925537,838.404785   C2622.354492,845.207092 2665.519043,853.735779 2709.000488,860.146362   C2739.250244,864.606262 2755.781982,880.324951 2762.970947,910.299988   C2789.079102,1019.158447 2816.542480,1127.691772 2843.487549,1236.349487   C2875.565186,1365.705444 2907.635254,1495.063232 2939.705811,1624.420898   C2940.186768,1626.361694 2940.583496,1628.323975 2941.092773,1630.256958   C2945.361816,1646.458984 2948.299072,1648.795166 2964.248535,1648.725952   C2986.537354,1648.629272 3000.395752,1639.342041 3009.048584,1618.583008   C3017.477783,1598.361206 3018.025635,1577.125610 3016.919189,1555.705688   C3015.024170,1519.009521 3007.848145,1483.008545 3002.334229,1446.799805   C2981.167236,1307.795898 2959.258301,1168.902710 2938.662598,1029.814697   C2922.949707,923.702271 2908.168701,817.440979 2894.233398,711.080688   C2887.659912,660.908508 2883.672119,610.381104 2879.292969,559.946960   C2877.801025,542.765869 2878.271973,525.367432 2878.688232,508.088623   C2878.878174,500.189880 2880.543213,492.193848 2882.538086,484.500854   C2885.999268,471.151367 2893.362305,459.862000 2905.167480,452.679169   C2915.331787,446.494507 2926.144043,441.018066 2937.277588,436.853546   C2964.206055,426.781128 2992.492432,421.692505 3020.630371,416.353027   C3076.281982,405.792542 3132.362549,398.104614 3188.662354,391.907867   C3254.863281,384.621277 3321.192871,378.939392 3387.747070,376.383636   C3440.990723,374.338989 3494.294678,372.643066 3547.307129,380.070038   C3559.110107,381.723633 3570.760986,384.884674 3582.274170,388.096405   C3604.306885,394.242706 3619.465820,408.588989 3627.886230,429.584351   C3634.075684,445.017578 3640.262695,460.612061 3644.457031,476.655914   C3657.936768,528.218628 3671.625977,579.770935 3683.188232,631.782043   C3716.741699,782.717468 3744.897949,934.721619 3770.414795,1087.204956   C3788.892090,1197.621460 3805.798340,1308.289062 3819.124023,1419.461914   C3832.367676,1529.953613 3841.855957,1640.776978 3846.524414,1751.978882   C3847.921143,1785.248413 3848.978516,1818.542725 3849.478760,1851.836426   C3849.978516,1885.085327 3850.033203,1918.354736 3849.504639,1951.602783   C3847.744141,2062.309082 3839.601562,2172.452881 3821.742920,2281.866699   C3807.542969,2368.866943 3787.691406,2454.402100 3760.629639,2538.280518   C3732.103271,2626.697754 3694.909668,2711.397461 3650.651611,2792.993164   C3618.826416,2851.667236 3574.717285,2898.688477 3516.804443,2932.666992   C3481.676270,2953.277344 3445.008545,2970.685059 3408.275146,2988.073242   C3380.553711,3001.196045 3352.623535,3013.731201 3320.472168,3022.957520   C3314.317383,3024.567139 3310.949463,3026.013916 3307.581543,3027.460449   C3307.581543,3027.460449 3307.770264,3027.806641 3306.341553,3027.315186   C3300.486328,3028.383545 3296.059814,3029.943359 3291.633545,3031.502930   C3291.633545,3031.503174 3291.796387,3031.828369 3290.320801,3031.307373   C3283.161133,3032.455566 3277.477295,3034.124756 3271.793457,3035.793945   C3271.793457,3035.793945 3271.942139,3035.987793 3270.472656,3035.499756   C3263.033203,3035.773438 3256.648682,3034.994873 3251.728760,3039.659180   C3251.728760,3039.659180 3251.883789,3039.969238 3250.126465,3039.414551   C3240.210205,3040.038818 3232.051270,3041.217773 3222.509766,3042.250977   C3216.014160,3042.427734 3209.779541,3040.252930 3208.000000,3048.000000   C3174.583008,3048.000000 3141.166016,3048.000000 3105.705322,3046.489258   C3101.263428,3043.983643 3098.948730,3042.494873 3096.453613,3042.072021   C3075.012451,3038.441650 3053.545898,3034.955078 3032.064209,3031.572021   C3029.529053,3031.173096 3026.855225,3031.657959 3024.245605,3031.733154   C3024.245605,3031.733154 3024.124512,3031.779541 3023.102539,3030.700928   C3013.790039,3026.474854 3005.656494,3022.660400 2996.407471,3023.600098   C2996.407471,3023.600098 2996.239258,3023.607666 2995.377197,3022.503418   C2991.146484,3020.796387 2987.778076,3020.193359 2984.409424,3019.590576   C2984.409424,3019.590576 2984.240723,3019.600830 2983.415039,3018.499756   C2979.292725,3016.728516 2975.996582,3016.058350 2972.700195,3015.388184   C2972.700195,3015.388184 2972.441406,3015.356934 2971.605469,3014.143066   C2962.305176,3008.885498 2954.147705,3003.969482 2944.374756,3003.647705   C2944.374756,3003.647705 2944.231201,3003.661621 2943.525391,3002.435059   C2937.797363,2999.409180 2932.775635,2997.609375 2927.753662,2995.809814  z"
   id="path4" />

<path
   fill="#9C8F00"
   opacity="1.000000"
   stroke="none"
   d=" M4.000000,1449.874634   C10.523571,1449.565430 11.384548,1454.560425 11.411401,1460.125244   C11.496797,1477.822021 11.665118,1495.518311 11.712664,1513.215088   C11.747884,1526.324829 11.644790,1539.434937 10.223441,1554.280273   C7.229047,1556.010620 5.614523,1556.005371 4.000000,1556.000000   C4.000000,1521.249756 4.000000,1486.499512 4.000000,1449.874634  z"
   id="path6" />
<path
   fill="#999000"
   opacity="1.000000"
   stroke="none"
   d=" M11.653595,999.839966   C11.578338,1028.876221 11.596279,1057.913330 11.347672,1086.947998   C11.299071,1092.624268 13.105750,1099.052979 5.558848,1103.653076   C4.000000,1070.583008 4.000000,1037.166138 5.270266,1002.088379   C8.244886,1000.231689 9.949241,1000.035828 11.653595,999.839966  z"
   id="path7" />
<path
   fill="#9F7400"
   opacity="1.000000"
   stroke="none"
   d=" M3025.414062,3032.647217   C3026.855225,3031.657959 3029.529053,3031.173096 3032.064209,3031.572021   C3053.545898,3034.955078 3075.012451,3038.441650 3096.453613,3042.072021   C3098.948730,3042.494873 3101.263428,3043.983643 3103.830811,3046.489258   C3098.444336,3048.000000 3092.888916,3048.000000 3084.905518,3046.898438   C3079.959717,3045.313232 3077.423096,3044.426514 3074.932373,3044.540283   C3073.904297,3044.587402 3072.974609,3046.781982 3072.000000,3048.000000   C3069.000000,3048.000000 3066.000000,3048.000000 3061.500000,3048.000000   C3060.266846,3046.303711 3061.284668,3043.547363 3060.661865,3043.106201   C3058.641602,3041.674805 3056.081055,3040.857422 3053.620361,3040.224121   C3044.631592,3037.911133 3035.598633,3035.768311 3025.414062,3032.647217  z"
   id="path8" />
<path
   fill="#848200"
   opacity="1.000000"
   stroke="none"
   d=" M4926.200195,4.000000   C4926.347168,6.793354 4926.950195,9.128090 4930.073730,9.886471   C4936.447266,11.433862 4942.921387,12.565847 4950.513672,14.765097   C4931.000977,14.809811 4910.387695,13.537465 4891.253906,5.525372   C4902.800293,4.000000 4913.600098,4.000000 4926.200195,4.000000  z"
   id="path9" />
<path
   fill="#5F5500"
   opacity="1.000000"
   stroke="none"
   d=" M4.000000,1557.842529   C5.614523,1556.005371 7.229047,1556.010620 10.050510,1556.167114   C11.578568,1571.527344 11.952100,1586.735596 12.183920,1601.946045   C12.241814,1605.744507 10.145824,1607.889282 5.120825,1606.028076   C4.000000,1589.228394 4.000000,1574.456665 4.000000,1557.842529  z"
   id="path10" />
<path
   fill="#6A6400"
   opacity="1.000000"
   stroke="none"
   d=" M11.887425,998.005371   C9.949241,1000.035828 8.244886,1000.231689 5.270266,1000.213745   C4.000000,987.877625 4.000000,975.755249 4.000000,961.816406   C9.047832,958.343201 8.705514,953.598938 10.634878,948.730103   C11.602827,952.840698 11.955976,957.946045 12.010622,963.054626   C12.128694,974.092468 12.093657,985.132019 11.887425,998.005371  z"
   id="path11" />
<path
   fill="#5F5500"
   opacity="1.000000"
   stroke="none"
   d=" M11.304648,1631.741821   C15.939406,1644.117432 12.567952,1656.998779 13.258591,1671.099121   C10.772610,1670.846802 8.723639,1669.091187 5.337335,1667.667725   C4.000000,1661.142578 4.000000,1654.285156 5.072908,1646.161865   C7.419713,1642.935913 9.045432,1641.112061 9.871295,1638.978394   C10.745566,1636.719727 10.858932,1634.166382 11.304648,1631.741821  z"
   id="path12" />
<path
   fill="#8A8700"
   opacity="1.000000"
   stroke="none"
   d=" M4702.666992,3.999976   C4703.522949,5.554054 4703.206055,8.389379 4702.545410,8.471993   C4690.705566,9.952581 4678.824219,11.099984 4665.189453,11.799805   C4664.391602,9.512803 4665.355469,7.744821 4665.159668,4.988420   C4672.166504,4.000000 4680.333496,4.000000 4690.251953,4.969378   C4693.807129,6.262470 4695.972656,7.334873 4696.000000,4.000000   C4697.777832,4.000000 4699.555664,4.000000 4702.666992,3.999976  z"
   id="path13" />
<path
   fill="#9C5000"
   opacity="1.000000"
   stroke="none"
   d=" M3223.892090,3042.396484   C3232.051270,3041.217773 3240.210205,3040.038818 3250.118652,3039.241699   C3251.154541,3041.632568 3250.441162,3043.642090 3250.863770,3046.825684   C3243.833252,3048.000000 3235.666748,3048.000000 3225.744141,3047.063965   C3224.063965,3044.881104 3224.031982,3043.637451 3223.892090,3042.396484  z"
   id="path14" />
<path
   fill="#010100"
   opacity="1.000000"
   stroke="none"
   d=" M11.423170,1629.811768   C10.858932,1634.166382 10.745566,1636.719727 9.871295,1638.978394   C9.045432,1641.112061 7.419713,1642.935913 5.072908,1644.447998   C4.000000,1637.142578 4.000000,1630.285156 4.000004,1621.713867   C4.971657,1618.641846 5.687473,1616.490845 6.964434,1616.078857   C10.375667,1614.978149 10.914687,1617.943115 11.241664,1620.297607   C11.588003,1622.791504 11.461612,1625.350952 11.423170,1629.811768  z"
   id="path15" />
<path
   fill="#8D7B00"
   opacity="1.000000"
   stroke="none"
   d=" M3222.509766,3042.250977   C3224.031982,3043.637451 3224.063965,3044.881104 3223.994141,3047.063965   C3219.733154,3048.000000 3215.466553,3048.000000 3209.599854,3048.000000   C3209.779541,3040.252930 3216.014160,3042.427734 3222.509766,3042.250977  z"
   id="path16" />
<path
   fill="#9B8500"
   opacity="1.000000"
   stroke="none"
   d=" M6004.000000,1966.250000   C6002.753906,1966.970581 6000.384277,1965.875610 6000.439941,1964.922363   C6000.874512,1957.486450 6001.775391,1950.077637 6003.266113,1941.330322   C6004.000000,1948.166626 6004.000000,1956.333374 6004.000000,1966.250000  z"
   id="path17" />
<path
   fill="#010100"
   opacity="1.000000"
   stroke="none"
   d=" M6000.235352,1747.743164   C6000.453613,1743.544312 6000.672363,1739.345459 6002.445312,1735.573242   C6004.000000,1739.000000 6004.000000,1742.000000 6003.037109,1746.759521   C6002.073730,1748.519043 6000.235352,1747.743164 6000.235352,1747.743164  z"
   id="path18" />
<path
   fill="#010100"
   opacity="1.000000"
   stroke="none"
   d=" M3073.500000,3048.000000   C3072.974609,3046.781982 3073.904297,3044.587402 3074.932373,3044.540283   C3077.423096,3044.426514 3079.959717,3045.313232 3083.238770,3046.898438   C3081.000000,3048.000000 3078.000000,3048.000000 3073.500000,3048.000000  z"
   id="path19" />
<path
   fill="#898900"
   opacity="1.000000"
   stroke="none"
   d=" M5999.836426,1749.171631   C6000.235352,1747.743164 6002.073730,1748.519043 6003.037109,1748.259521   C6004.000000,1751.000000 6004.000000,1754.000000 6004.000000,1758.500000   C5998.641113,1758.729614 5999.831055,1754.280518 5999.836426,1749.171631  z"
   id="path20" />
<path
   fill="#898900"
   opacity="1.000000"
   stroke="none"
   d=" M6004.000000,1775.000000   C6003.445801,1774.738281 6002.892090,1773.476440 6003.168945,1772.107300   C6004.000000,1772.000000 6004.000000,1774.000000 6004.000000,1775.000000  z"
   id="path21" />
<path
   fill="#848200"
   opacity="1.000000"
   stroke="none"
   d=" M4851.000000,4.000000   C4852.000000,4.000000 4850.886230,5.089475 4850.886230,5.089475   C4850.886230,5.089475 4849.234375,4.363415 4848.617188,4.181707   C4848.000000,4.000000 4850.000000,4.000000 4851.000000,4.000000  z"
   id="path22" />
<path
   fill="#8A8700"
   opacity="1.000000"
   stroke="none"
   d=" M4731.000000,4.000000   C4732.455566,7.580606 4730.435059,6.844051 4728.196289,5.034341   C4728.000000,4.000000 4730.000000,4.000000 4731.000000,4.000000  z"
   id="path23" />
<path
   fill="#010100"
   opacity="1.000000"
   stroke="none"
   d=" M4695.000000,4.000000   C4695.972656,7.334873 4693.807129,6.262470 4692.001953,4.969378   C4692.000000,4.000000 4694.000000,4.000000 4695.000000,4.000000  z"
   id="path24" />
<path
   fill="#5F5500"
   opacity="1.000000"
   stroke="none"
   d=" M14.779616,1757.135620   C16.258520,1765.815430 17.084009,1775.836182 17.421211,1787.273926   C11.943069,1778.995972 13.409143,1768.701538 14.779616,1757.135620  z"
   id="path25" />
<path
   fill="#9F7400"
   opacity="1.000000"
   stroke="none"
   d=" M2997.474365,3024.552246   C3005.656494,3022.660400 3013.790039,3026.474854 3023.059326,3030.652344   C3014.835693,3032.527344 3006.792236,3028.587402 2997.474365,3024.552246  z"
   id="path26" />
<path
   fill="#9F7400"
   opacity="1.000000"
   stroke="none"
   d=" M2945.280762,3004.672607   C2954.147705,3003.969482 2962.305176,3008.885498 2971.491455,3014.079590   C2963.538086,3012.052246 2954.862305,3008.874756 2945.280762,3004.672607  z"
   id="path27" />
<path
   fill="#9F7400"
   opacity="1.000000"
   stroke="none"
   d=" M2928.584229,2996.876953   C2932.775635,2997.609375 2937.797363,2999.409180 2943.481934,3002.377441   C2939.234863,3001.678955 2934.324707,2999.811523 2928.584229,2996.876953  z"
   id="path28" />
<path
   fill="#9C5000"
   opacity="1.000000"
   stroke="none"
   d=" M3273.278076,3036.151855   C3277.477295,3034.124756 3283.161133,3032.455566 3290.350586,3031.127930   C3286.158447,3033.149658 3280.460449,3034.829834 3273.278076,3036.151855  z"
   id="path29" />
<path
   fill="#9C5000"
   opacity="1.000000"
   stroke="none"
   d=" M3253.225342,3040.010986   C3256.648682,3034.994873 3263.033203,3035.773438 3270.511230,3035.383789   C3266.253662,3037.291504 3260.487793,3038.827148 3253.225342,3040.010986  z"
   id="path30" />
<path
   fill="#9C5000"
   opacity="1.000000"
   stroke="none"
   d=" M3293.046387,3031.826904   C3296.059814,3029.943359 3300.486328,3028.383545 3306.355957,3027.118652   C3303.352539,3028.992676 3298.905762,3030.571777 3293.046387,3031.826904  z"
   id="path31" />
<path
   fill="#9F7400"
   opacity="1.000000"
   stroke="none"
   d=" M2985.346191,3020.493652   C2987.778076,3020.193359 2991.146484,3020.796387 2995.308838,3022.454590   C2992.829346,3022.805420 2989.556396,3022.101074 2985.346191,3020.493652  z"
   id="path32" />
<path
   fill="#9C5000"
   opacity="1.000000"
   stroke="none"
   d=" M3308.959961,3027.736328   C3310.949463,3026.013916 3314.317383,3024.567139 3319.119141,3023.394531   C3317.148193,3025.116455 3313.743408,3026.564209 3308.959961,3027.736328  z"
   id="path33" />
<path
   fill="#9F7400"
   opacity="1.000000"
   stroke="none"
   d=" M2973.596191,3016.306641   C2975.996582,3016.058350 2979.292725,3016.728516 2983.345947,3018.450684   C2980.899414,3018.743652 2977.695801,3017.984375 2973.596191,3016.306641  z"
   id="path34" />
<path
   fill="#5F5500"
   opacity="1.000000"
   stroke="none"
   d=" M16.726429,1808.097168   C18.008644,1809.326172 18.736311,1811.719849 18.795624,1815.244141   C17.475475,1814.003784 16.823679,1811.632935 16.726429,1808.097168  z"
   id="path35" />
<path
   fill="#5F5500"
   opacity="1.000000"
   stroke="none"
   d=" M12.730024,1700.100586   C14.027575,1701.321533 14.777145,1703.710815 14.858384,1707.235474   C13.520717,1706.003418 12.851380,1703.636230 12.730024,1700.100586  z"
   id="path36" />
<path
   fill="#5F5500"
   opacity="1.000000"
   stroke="none"
   d=" M17.865910,1832.081055   C18.908184,1832.330322 19.338020,1833.077148 19.460606,1835.079590   C18.520058,1835.082886 17.886765,1833.830688 17.865910,1832.081055  z"
   id="path37" />
<path
   fill="#5F5500"
   opacity="1.000000"
   stroke="none"
   d=" M13.605738,1728.059326   C14.675158,1728.328613 15.085599,1729.097900 15.182783,1731.137207   C14.228604,1731.124634 13.587682,1729.842041 13.605738,1728.059326  z"
   id="path38" />
<path
   fill="#848200"
   opacity="1.000000"
   stroke="none"
   d=" M4973.795898,20.609768   C4978.361816,20.447695 4984.062500,21.155821 4990.854980,22.824501   C4986.274414,23.016693 4980.602539,22.248331 4973.795898,20.609768  z"
   id="path39" />
<path
   fill="#848200"
   opacity="1.000000"
   stroke="none"
   d=" M4953.740234,16.651112   C4958.270996,16.416773 4963.934570,17.041500 4970.656250,18.628544   C4966.100586,18.897299 4960.486328,18.203737 4953.740234,16.651112  z"
   id="path40" />
</svg>
